<?xml version="1.0" encoding="utf-8"?>
<!-- Generator: Adobe Illustrator 27.3.1, SVG Export Plug-In . SVG Version: 6.00 Build 0)  -->
<svg version="1.1" id="Capa_1" xmlns="http://www.w3.org/2000/svg" xmlns:xlink="http://www.w3.org/1999/xlink" x="0px" y="0px"
	 viewBox="0 0 18 18" style="enable-background:new 0 0 18 18;" xml:space="preserve">
<style type="text/css">
	.st0{fill:#9FA1A8;}
</style>
<g>
	<polygon class="st0" points="13.8,6.4 17.5,4.9 17.5,2.5 12.8,3.8 	"/>
	<path class="st0" d="M12.6,3.1l4.9-1.4V0.5c-1.9,0.3-3.9,0.5-5.7,0.6L12.6,3.1z"/>
	<polygon class="st0" points="16,12 17.5,11.8 17.5,5.7 14.1,7 	"/>
	<path class="st0" d="M11.9,3.3l-0.8-2.1c-0.7,0-1.4,0-2.1,0.1L7.5,4.5L11.9,3.3z"/>
	<polygon class="st0" points="4.7,10.7 3.4,13.7 10.9,12.7 8.1,9.4 	"/>
	<polygon class="st0" points="15.3,12.1 13.4,7.3 8.8,9.1 11.7,12.5 	"/>
	<path class="st0" d="M6.6,4.8l1.6-3.5c-2,0-3.9-0.2-5.8-0.4l1.2,4.8L6.6,4.8z"/>
	<polygon class="st0" points="7.1,5.3 5.1,9.8 13.2,6.6 12.1,4 	"/>
	<polygon class="st0" points="17.5,16 17.5,12.4 16.2,12.6 	"/>
	<path class="st0" d="M0.5,12.4v5.1c0.2,0,0.3-0.1,0.5-0.1l2.8-6.3L0.5,12.4z"/>
	<polygon class="st0" points="0.5,7.1 0.5,11.6 4.2,10.2 6.3,5.6 	"/>
	<path class="st0" d="M3.1,14.4l-1.3,2.9c4.4-0.6,8.7-0.7,12.7-0.2l-3.1-3.8L3.1,14.4z"/>
	<path class="st0" d="M12.2,13.2l3.3,4c0.6,0.1,1.2,0.2,1.8,0.3l-1.8-4.7L12.2,13.2z"/>
	<path class="st0" d="M1.7,0.7C1.3,0.7,0.9,0.6,0.5,0.5v5.9l2.4-0.7L1.7,0.7z"/>
</g>
</svg>
